
<svg width="24" height="24" viewBox="0 0 24 24" xmlns="http://www.w3.org/2000/svg" xmlns:xlink="http://www.w3.org/1999/xlink"><title>Page 1</title><defs><path id="a" d="M0 .143h23.685V24H0"/><path id="c" d="M0 .143h23.685V24H0V.143z"/><path id="e" d="M0 .143h23.685V24H0"/></defs><g fill="none" fill-rule="evenodd"><path d="M7.14 12.073a6.575 6.575 0 0 0 1.887 4.622c.13.132.264.257.403.377l.002-10A6.53 6.53 0 0 0 7.646 9.53a6.575 6.575 0 0 0-.506 2.543" fill="#94A3AB"/><path d="M18.137 7.45a6.42 6.42 0 0 0-2.048-1.4 6.325 6.325 0 0 0-2.508-.514 6.32 6.32 0 0 0-2.2.39l8.545 5.01a6.572 6.572 0 0 0-1.79-3.485M10.59 6.283c-.002 0-.004 0-.005.002l3.14 5.52h6.293a6.964 6.964 0 0 0-.01-.21l-9.23-5.41-.19.098" fill="#00B29F"/><path d="M20.018 12.338H13.72l-3.132 5.525c.062.033.124.064.187.095l9.232-5.41c.005-.07.01-.14.01-.21M16.09 18.096a6.52 6.52 0 0 0 3.838-4.89l-8.55 5.01c.704.262 1.444.394 2.204.394.87 0 1.713-.173 2.507-.514" fill="#5AAAFA"/><path d="M13.266 12.07l-3.13-5.52h-.002c-.023.014-.18.12-.18.12l-.002 10.805c.057.04.115.078.174.116l3.14-5.52z" fill="#94A3AB"/><path fill="#90908F" d="M13.72 12.337z"/><g><mask id="b" fill="#fff"><use xlink:href="#a"/></mask><path d="M13.582 5.032c3.56 0 6.494 2.72 6.893 6.225a6.898 6.898 0 0 1 .027.298l3.176-5.582L20.36.143h-6.635l-3.187 5.6a6.827 6.827 0 0 1 3.044-.712" fill="#00B29F" mask="url(#b)"/></g><path fill="#90908F" d="M10.676 18.63l-.126-.222.126.22z"/><g><mask id="d" fill="#fff"><use xlink:href="#c"/></mask><path d="M20.503 12.577a7.482 7.482 0 0 1-.028.31c-.397 3.505-3.332 6.227-6.893 6.227a6.828 6.828 0 0 1-3.032-.706L13.732 24h6.635l3.318-5.83-3.182-5.593z" fill="#5AAAFA" mask="url(#d)"/></g><g><mask id="f" fill="#fff"><use xlink:href="#e"/></mask><path d="M9.705 6.233H3.318L0 12.063l3.318 5.83h6.357a7.065 7.065 0 0 1-3.032-5.82 7.065 7.065 0 0 1 3.062-5.84" fill="#94A3AB" mask="url(#f)"/></g></g></svg>
